<svg id="Capa_1" data-name="Capa 1" xmlns="http://www.w3.org/2000/svg" viewBox="0 0 100.2 100.2"><defs><style>.cls-1{fill:#333;}.cls-1,.cls-2{stroke:#000;stroke-miterlimit:10;stroke-width:0.2px;}.cls-2{fill:#fff;}</style></defs><title>logo-svg-2</title><circle class="cls-1" cx="50.1" cy="50.1" r="50"/><path class="cls-2" d="M23.58,62.69H78.27V77.87C78.27,95.73,51,95.73,51,95.73s-27.44,0-27.44-17.86Z" transform="translate(0.1 0.1)"/><ellipse class="cls-2" cx="50.95" cy="64.24" rx="27.33" ry="15"/><ellipse class="cls-1" cx="51.12" cy="63.45" rx="7.84" ry="5.22"/><path class="cls-2" d="M30.67,4l-.05,18.13H26.24L26.27,6Z" transform="translate(0.1 0.1)"/><path class="cls-2" d="M60.54,22h4.73l.06-19.55-4.8-1.33Z" transform="translate(0.1 0.1)"/><path class="cls-2" d="M38.48,43.46v6.61l17,8.56L57.8,57l-7.09-7.94L61.64,36.36l-1.31-1L49.59,47.63l-1.33-1h-7Z" transform="translate(0.1 0.1)"/><polygon class="cls-2" points="20.5 18.32 71.27 18.36 48.69 45.72 41.45 45.72 20.5 18.32"/></svg>