<svg id="Capa_1" data-name="Capa 1" xmlns="http://www.w3.org/2000/svg" viewBox="0 0 87.05 145.85"><defs><style>.cls-1{fill:#fff;}.cls-1,.cls-2{stroke:#000;stroke-miterlimit:10;stroke-width:0.25px;}.cls-2{fill:#333;}</style></defs><title>logo-svg</title><path class="cls-1" d="M36.37,96H118v22.78c0,26.79-40.67,26.79-40.67,26.79s-41,0-41-26.79Z" transform="translate(-31.35 0.13)"/><ellipse class="cls-1" cx="45.93" cy="98.33" rx="40.99" ry="22.5"/><ellipse class="cls-2" cx="46.18" cy="97.15" rx="11.76" ry="7.82"/><path class="cls-1" d="M47,0q0,19.5-.07,39H40.35Q40.19,19.5,40,0Z" transform="translate(-31.35 0.13)"/><path class="cls-1" d="M92.44,39h6.48Q99,19.5,99,0H92.44Z" transform="translate(-31.35 0.13)"/><path class="cls-1" d="M58.72,67.2v9.91L84.28,89.94l3.43-2.41L77.07,75.62q8.19-9.54,16.39-19.07l-2-1.49L75.38,73.44l-2-1.54H62.88C61.49,70.33,60.1,68.77,58.72,67.2Z" transform="translate(-31.35 0.13)"/><polygon class="cls-1" points="0.25 29.46 76.42 29.52 42.53 70.55 31.68 70.55 0.25 29.46"/></svg>